# xmcd
#
# Track frame offsets:
#	150
#	15453
#	29823
#	43725
#	58665
#	74128
#	84778
#	98703
#	114190
#	140815
#	156378
#	171428
#	184803
#	201678
#
# Disc length: 2835
#
# Revision: 1
# Processed by: cddbd v1.5.1PL0 Copyright (c) Steve Scherf et al.
# Submitted via: CDex 1.51
# Normalized: r0:DSETVAR1,TDELIM( - )
#
DISCID=d10b110e
DTITLE=Various Artist - Best of Jazz, Rhythm and Blues, The
DYEAR=1994
DGENRE=Jazz
TTITLE0=Louis Armstrong - Mack the Knife
TTITLE1=Duke Ellington - Sophisticated Lady
TTITLE2=Count Basie and his orchestra - One O'clock jump
TTITLE3=Billie Holiday - These Foolish Things
TTITLE4=Betty Carter - Moolight in Vermont
TTITLE5=Ella Fitzgerald - A-Tisket A-Tasket
TTITLE6=Sarah Vaughan - Say you'll wait for me
TTITLE7=Lena Horne with Teddy Wilson and his Orchestra - Prisoner of Love
TTITLE8=Miles Davis - 'Round Midnight
TTITLE9=Harold Melvin and The Blue Notes - If you don't know me by now
TTITLE10=Lou Rawls - Groovy People
TTITLE11=Jackie Wilson - (Your Love keeps liftin' Me) Higher and Higher
TTITLE12=The O'Jays - For the Love of Money
TTITLE13=Aretha Franklin - Respect
EXTD=YEAR: 1994
EXTT0=
EXTT1=
EXTT2=
EXTT3=
EXTT4=
EXTT5=
EXTT6=
EXTT7=
EXTT8=
EXTT9=
EXTT10=
EXTT11=
EXTT12=
EXTT13=
PLAYORDER=
